<svg xmlns="http://www.w3.org/2000/svg" version="1.0" width="1200.000000pt" height="850.000000pt" viewBox="0 0 1200.000000 850.000000" preserveAspectRatio="xMidYMid meet">

<g transform="translate(0.000000,850.000000) scale(0.100000,-0.100000)" stroke="none">
<path fill="#1e97fe" d="M5776 8240 c-889 -48 -1740 -390 -2411 -971 -116 -100 -377 -365 -450 -456 l-50 -63 -530 0 c-549 0 -696 -7 -844 -39 -516 -113 -954 -484 -1146 -970 -48 -122 -90 -291 -104 -419 -15 -142 -15 -2032 0 -2174 69 -642 523 -1183 1144 -1363 196 -56 221 -58 875 -63 l605 -4 70 -85 c102 -124 328 -348 474 -470 386 -323 829 -572 1297 -729 662 -221 1358 -268 2039 -138 349 67 725 194 1040 351 466 234 934 601 1259 991 l69 82 543 0 c661 0 759 8 984 81 259 84 483 227 675 431 194 206 327 461 397 760 22 92 22 104 26 1188 2 761 0 1121 -8 1180 -60 461 -323 874 -720 1132 -213 139 -459 223 -725 248 -60 5 -349 10 -640 10 l-531 0 -108 125 c-594 684 -1429 1154 -2326 1309 -286 50 -623 71 -904 56z m4560 -1995 c228 -40 410 -133 581 -298 187 -181 299 -402 333 -659 8 -57 10 -406 7 -1108 -4 -1117 0 -1051 -61 -1229 -108 -313 -364 -570 -680 -680 -184 -65 -27 -61 -2600 -60 l-2341 0 80 23 c202 56 366 161 470 298 61 81 130 222 154 318 40 159 42 225 40 1315 -1 954 0 1059 16 1150 63 365 210 617 458 784 94 64 278 132 402 150 33 5 733 9 1556 10 1305 1 1508 -1 1585 -14z m-4988 -700 c98 -53 143 -129 150 -250 7 -134 -43 -232 -149 -290 -74 -40 -188 -47 -271 -15 -145 54 -221 225 -173 388 21 70 99 154 168 182 79 31 203 24 275 -15z m-3399 -1090 c124 -464 226 -843 228 -841 2 2 102 381 222 842 l218 839 294 0 293 0 22 -80 c12 -44 113 -423 225 -842 111 -420 204 -762 205 -760 2 2 98 365 214 807 116 443 215 822 221 843 l10 37 306 0 c286 0 305 -1 301 -17 -3 -10 -175 -534 -384 -1166 l-378 -1147 -309 2 -310 3 -211 787 c-116 433 -214 784 -217 780 -4 -4 -102 -359 -219 -790 l-213 -782 -311 2 -311 3 -377 1150 c-207 633 -377 1156 -377 1163 -1 9 69 12 317 12 l317 0 224 -845z m3531 -585 l0 -900 -290 0 -290 0 0 893 c0 492 3 897 7 900 3 4 134 7 290 7 l283 0 0 -900z"/>
<path fill="#1e97fe" d="M9597 5570 c-141 -36 -221 -142 -221 -295 0 -93 21 -149 78 -213 53 -58 123 -85 222 -86 134 0 216 52 272 172 21 46 23 64 20 140 -5 133 -57 216 -163 263 -49 22 -156 32 -208 19z"/>
<path fill="#1e97fe" d="M7380 4130 l0 -1160 295 0 295 0 0 430 0 430 520 0 520 0 0 230 0 230 -520 0 -520 0 0 270 0 270 565 0 565 0 0 230 0 230 -860 0 -860 0 0 -1160z"/>
<path fill="#1e97fe" d="M9390 3865 l0 -895 280 0 280 0 0 895 0 895 -280 0 -280 0 0 -895z"/>
</g>
</svg>